<?xml version="1.0" encoding="UTF-8" standalone="no"?>
<!DOCTYPE svg PUBLIC "-//W3C//DTD SVG 1.1//EN"
 "http://www.w3.org/Graphics/SVG/1.1/DTD/svg11.dtd">
<!-- Generated by graphviz version 5.0.0 (20220707.2145)
 -->
<!-- Title: tsconfig Pages: 1 -->
<svg width="605pt" height="332pt"
 viewBox="0.00 0.00 604.84 332.00" xmlns="http://www.w3.org/2000/svg" xmlns:xlink="http://www.w3.org/1999/xlink">
<g id="graph0" class="graph" transform="scale(1 1) rotate(0) translate(4 328)">
<title>tsconfig</title>
<polygon fill="white" stroke="transparent" points="-4,4 -4,-328 600.84,-328 600.84,4 -4,4"/>
<!-- /Users/mjr/exp/madatdata/packages/core/tsconfig.build.json -->
<g id="node1" class="node">
<title>/Users/mjr/exp/madatdata/packages/core/tsconfig.build.json</title>
<polygon fill="none" stroke="black" points="410.76,-252 295.97,-252 295.97,-216 410.76,-216 410.76,-252"/>
<text text-anchor="middle" x="353.36" y="-229.8" font-family="Helvetica,Arial,sans-serif" font-size="14.00">@madatdata/core</text>
</g>
<!-- /Users/mjr/exp/madatdata/packages/base&#45;client/tsconfig.build.json -->
<g id="node2" class="node">
<title>/Users/mjr/exp/madatdata/packages/base&#45;client/tsconfig.build.json</title>
<polygon fill="none" stroke="black" points="377.81,-36 226.92,-36 226.92,0 377.81,0 377.81,-36"/>
<text text-anchor="middle" x="302.36" y="-13.8" font-family="Helvetica,Arial,sans-serif" font-size="14.00">@madatdata/base&#45;client</text>
</g>
<!-- /Users/mjr/exp/madatdata/packages/core/tsconfig.build.json&#45;&gt;/Users/mjr/exp/madatdata/packages/base&#45;client/tsconfig.build.json -->
<g id="edge2" class="edge">
<title>/Users/mjr/exp/madatdata/packages/core/tsconfig.build.json&#45;&gt;/Users/mjr/exp/madatdata/packages/base&#45;client/tsconfig.build.json</title>
<path fill="none" stroke="black" d="M296.11,-225.47C268.02,-218.57 236.59,-205.34 219.36,-180 188.3,-134.3 238.98,-75.49 273.82,-43.09"/>
<polygon fill="black" stroke="black" points="276.36,-45.52 281.42,-36.21 271.66,-40.33 276.36,-45.52"/>
</g>
<!-- /Users/mjr/exp/madatdata/packages/base&#45;db/tsconfig.build.json -->
<g id="node3" class="node">
<title>/Users/mjr/exp/madatdata/packages/base&#45;db/tsconfig.build.json</title>
<polygon fill="none" stroke="black" points="471.21,-108 337.52,-108 337.52,-72 471.21,-72 471.21,-108"/>
<text text-anchor="middle" x="404.36" y="-85.8" font-family="Helvetica,Arial,sans-serif" font-size="14.00">@madatdata/base&#45;db</text>
</g>
<!-- /Users/mjr/exp/madatdata/packages/core/tsconfig.build.json&#45;&gt;/Users/mjr/exp/madatdata/packages/base&#45;db/tsconfig.build.json -->
<g id="edge1" class="edge">
<title>/Users/mjr/exp/madatdata/packages/core/tsconfig.build.json&#45;&gt;/Users/mjr/exp/madatdata/packages/base&#45;db/tsconfig.build.json</title>
<path fill="none" stroke="black" d="M365.88,-215.62C372.55,-205.63 380.38,-192.59 385.36,-180 393.25,-160.08 398.11,-136.28 400.94,-118.31"/>
<polygon fill="black" stroke="black" points="404.43,-118.62 402.41,-108.22 397.51,-117.61 404.43,-118.62"/>
</g>
<!-- /Users/mjr/exp/madatdata/packages/client&#45;http/tsconfig.build.json -->
<g id="node4" class="node">
<title>/Users/mjr/exp/madatdata/packages/client&#45;http/tsconfig.build.json</title>
<polygon fill="none" stroke="black" points="376.21,-180 228.52,-180 228.52,-144 376.21,-144 376.21,-180"/>
<text text-anchor="middle" x="302.36" y="-157.8" font-family="Helvetica,Arial,sans-serif" font-size="14.00">@madatdata/client&#45;http</text>
</g>
<!-- /Users/mjr/exp/madatdata/packages/core/tsconfig.build.json&#45;&gt;/Users/mjr/exp/madatdata/packages/client&#45;http/tsconfig.build.json -->
<g id="edge4" class="edge">
<title>/Users/mjr/exp/madatdata/packages/core/tsconfig.build.json&#45;&gt;/Users/mjr/exp/madatdata/packages/client&#45;http/tsconfig.build.json</title>
<path fill="none" stroke="black" d="M340.76,-215.7C334.77,-207.47 327.49,-197.48 320.88,-188.42"/>
<polygon fill="black" stroke="black" points="323.54,-186.13 314.83,-180.1 317.89,-190.25 323.54,-186.13"/>
</g>
<!-- /Users/mjr/exp/madatdata/packages/db&#45;splitgraph/tsconfig.build.json -->
<g id="node6" class="node">
<title>/Users/mjr/exp/madatdata/packages/db&#45;splitgraph/tsconfig.build.json</title>
<polygon fill="none" stroke="black" points="596.83,-180 431.9,-180 431.9,-144 596.83,-144 596.83,-180"/>
<text text-anchor="middle" x="514.36" y="-157.8" font-family="Helvetica,Arial,sans-serif" font-size="14.00">@madatdata/db&#45;splitgraph</text>
</g>
<!-- /Users/mjr/exp/madatdata/packages/core/tsconfig.build.json&#45;&gt;/Users/mjr/exp/madatdata/packages/db&#45;splitgraph/tsconfig.build.json -->
<g id="edge3" class="edge">
<title>/Users/mjr/exp/madatdata/packages/core/tsconfig.build.json&#45;&gt;/Users/mjr/exp/madatdata/packages/db&#45;splitgraph/tsconfig.build.json</title>
<path fill="none" stroke="black" d="M392.75,-215.88C414.76,-206.31 442.37,-194.3 465.72,-184.15"/>
<polygon fill="black" stroke="black" points="467.33,-187.27 475.11,-180.07 464.54,-180.85 467.33,-187.27"/>
</g>
<!-- /Users/mjr/exp/madatdata/packages/base&#45;db/tsconfig.build.json&#45;&gt;/Users/mjr/exp/madatdata/packages/base&#45;client/tsconfig.build.json -->
<g id="edge5" class="edge">
<title>/Users/mjr/exp/madatdata/packages/base&#45;db/tsconfig.build.json&#45;&gt;/Users/mjr/exp/madatdata/packages/base&#45;client/tsconfig.build.json</title>
<path fill="none" stroke="black" d="M379.41,-71.88C366.32,-62.89 350.1,-51.76 335.93,-42.03"/>
<polygon fill="black" stroke="black" points="337.64,-38.96 327.41,-36.19 333.68,-44.73 337.64,-38.96"/>
</g>
<!-- /Users/mjr/exp/madatdata/packages/client&#45;http/tsconfig.build.json&#45;&gt;/Users/mjr/exp/madatdata/packages/base&#45;client/tsconfig.build.json -->
<g id="edge6" class="edge">
<title>/Users/mjr/exp/madatdata/packages/client&#45;http/tsconfig.build.json&#45;&gt;/Users/mjr/exp/madatdata/packages/base&#45;client/tsconfig.build.json</title>
<path fill="none" stroke="black" d="M302.36,-143.87C302.36,-119.67 302.36,-75.21 302.36,-46.39"/>
<polygon fill="black" stroke="black" points="305.86,-46.19 302.36,-36.19 298.86,-46.19 305.86,-46.19"/>
</g>
<!-- /Users/mjr/exp/madatdata/packages/client&#45;postgres/tsconfig.build.json -->
<g id="node5" class="node">
<title>/Users/mjr/exp/madatdata/packages/client&#45;postgres/tsconfig.build.json</title>
<polygon fill="none" stroke="black" points="172.59,-108 0.14,-108 0.14,-72 172.59,-72 172.59,-108"/>
<text text-anchor="middle" x="86.36" y="-85.8" font-family="Helvetica,Arial,sans-serif" font-size="14.00">@madatdata/client&#45;postgres</text>
</g>
<!-- /Users/mjr/exp/madatdata/packages/client&#45;postgres/tsconfig.build.json&#45;&gt;/Users/mjr/exp/madatdata/packages/base&#45;client/tsconfig.build.json -->
<g id="edge7" class="edge">
<title>/Users/mjr/exp/madatdata/packages/client&#45;postgres/tsconfig.build.json&#45;&gt;/Users/mjr/exp/madatdata/packages/base&#45;client/tsconfig.build.json</title>
<path fill="none" stroke="black" d="M138.93,-71.97C169.37,-62.1 207.87,-49.62 239.86,-39.25"/>
<polygon fill="black" stroke="black" points="241.13,-42.52 249.56,-36.11 238.97,-35.86 241.13,-42.52"/>
</g>
<!-- /Users/mjr/exp/madatdata/packages/db&#45;splitgraph/tsconfig.build.json&#45;&gt;/Users/mjr/exp/madatdata/packages/base&#45;client/tsconfig.build.json -->
<g id="edge9" class="edge">
<title>/Users/mjr/exp/madatdata/packages/db&#45;splitgraph/tsconfig.build.json&#45;&gt;/Users/mjr/exp/madatdata/packages/base&#45;client/tsconfig.build.json</title>
<path fill="none" stroke="black" d="M512.35,-143.73C509.11,-123.7 500.86,-91.01 480.36,-72 455.19,-48.66 420.16,-35.56 387.83,-28.23"/>
<polygon fill="black" stroke="black" points="388.4,-24.77 377.9,-26.13 386.96,-31.62 388.4,-24.77"/>
</g>
<!-- /Users/mjr/exp/madatdata/packages/db&#45;splitgraph/tsconfig.build.json&#45;&gt;/Users/mjr/exp/madatdata/packages/base&#45;db/tsconfig.build.json -->
<g id="edge8" class="edge">
<title>/Users/mjr/exp/madatdata/packages/db&#45;splitgraph/tsconfig.build.json&#45;&gt;/Users/mjr/exp/madatdata/packages/base&#45;db/tsconfig.build.json</title>
<path fill="none" stroke="black" d="M487.45,-143.88C473.21,-134.81 455.52,-123.55 440.13,-113.76"/>
<polygon fill="black" stroke="black" points="441.69,-110.61 431.38,-108.19 437.93,-116.51 441.69,-110.61"/>
</g>
<!-- /Users/mjr/exp/madatdata/packages/react/tsconfig.build.json -->
<g id="node7" class="node">
<title>/Users/mjr/exp/madatdata/packages/react/tsconfig.build.json</title>
<polygon fill="none" stroke="black" points="411.86,-324 294.86,-324 294.86,-288 411.86,-288 411.86,-324"/>
<text text-anchor="middle" x="353.36" y="-301.8" font-family="Helvetica,Arial,sans-serif" font-size="14.00">@madatdata/react</text>
</g>
<!-- /Users/mjr/exp/madatdata/packages/react/tsconfig.build.json&#45;&gt;/Users/mjr/exp/madatdata/packages/core/tsconfig.build.json -->
<g id="edge10" class="edge">
<title>/Users/mjr/exp/madatdata/packages/react/tsconfig.build.json&#45;&gt;/Users/mjr/exp/madatdata/packages/core/tsconfig.build.json</title>
<path fill="none" stroke="black" d="M353.36,-287.7C353.36,-279.98 353.36,-270.71 353.36,-262.11"/>
<polygon fill="black" stroke="black" points="356.86,-262.1 353.36,-252.1 349.86,-262.1 356.86,-262.1"/>
</g>
</g>
</svg>

