<?xml version="1.0" encoding="UTF-8" standalone="no"?>
<!DOCTYPE svg PUBLIC "-//W3C//DTD SVG 1.1//EN"
 "http://www.w3.org/Graphics/SVG/1.1/DTD/svg11.dtd">
<!-- Generated by graphviz version 5.0.0 (20220707.2145)
 -->
<!-- Title: tsconfig Pages: 1 -->
<svg width="787pt" height="332pt"
 viewBox="0.00 0.00 787.01 332.00" xmlns="http://www.w3.org/2000/svg" xmlns:xlink="http://www.w3.org/1999/xlink">
<g id="graph0" class="graph" transform="scale(1 1) rotate(0) translate(4 328)">
<title>tsconfig</title>
<polygon fill="white" stroke="transparent" points="-4,4 -4,-328 783.01,-328 783.01,4 -4,4"/>
<!-- /Users/mjr/exp/madatdata/packages/core/tsconfig.json -->
<g id="node1" class="node">
<title>/Users/mjr/exp/madatdata/packages/core/tsconfig.json</title>
<polygon fill="none" stroke="black" points="308.59,-252 193.8,-252 193.8,-216 308.59,-216 308.59,-252"/>
<text text-anchor="middle" x="251.2" y="-229.8" font-family="Helvetica,Arial,sans-serif" font-size="14.00">@madatdata/core</text>
</g>
<!-- /Users/mjr/exp/madatdata/packages/base&#45;client/tsconfig.json -->
<g id="node3" class="node">
<title>/Users/mjr/exp/madatdata/packages/base&#45;client/tsconfig.json</title>
<polygon fill="none" stroke="black" points="471.64,-36 320.76,-36 320.76,0 471.64,0 471.64,-36"/>
<text text-anchor="middle" x="396.2" y="-13.8" font-family="Helvetica,Arial,sans-serif" font-size="14.00">@madatdata/base&#45;client</text>
</g>
<!-- /Users/mjr/exp/madatdata/packages/core/tsconfig.json&#45;&gt;/Users/mjr/exp/madatdata/packages/base&#45;client/tsconfig.json -->
<g id="edge3" class="edge">
<title>/Users/mjr/exp/madatdata/packages/core/tsconfig.json&#45;&gt;/Users/mjr/exp/madatdata/packages/base&#45;client/tsconfig.json</title>
<path fill="none" stroke="black" d="M308.63,-224.05C411.33,-206.75 619.73,-165.3 662.2,-108 711.57,-41.37 577.55,-24.01 482.28,-19.84"/>
<polygon fill="black" stroke="black" points="482.16,-16.34 472.03,-19.44 481.88,-23.33 482.16,-16.34"/>
</g>
<!-- /Users/mjr/exp/madatdata/packages/base&#45;db/tsconfig.json -->
<g id="node4" class="node">
<title>/Users/mjr/exp/madatdata/packages/base&#45;db/tsconfig.json</title>
<polygon fill="none" stroke="black" points="463.04,-108 329.35,-108 329.35,-72 463.04,-72 463.04,-108"/>
<text text-anchor="middle" x="396.2" y="-85.8" font-family="Helvetica,Arial,sans-serif" font-size="14.00">@madatdata/base&#45;db</text>
</g>
<!-- /Users/mjr/exp/madatdata/packages/core/tsconfig.json&#45;&gt;/Users/mjr/exp/madatdata/packages/base&#45;db/tsconfig.json -->
<g id="edge2" class="edge">
<title>/Users/mjr/exp/madatdata/packages/core/tsconfig.json&#45;&gt;/Users/mjr/exp/madatdata/packages/base&#45;db/tsconfig.json</title>
<path fill="none" stroke="black" d="M308.6,-227.84C340.32,-221.72 377.23,-208.49 397.2,-180 409.69,-162.17 408.13,-137 404.2,-117.98"/>
<polygon fill="black" stroke="black" points="407.57,-117.04 401.85,-108.13 400.76,-118.67 407.57,-117.04"/>
</g>
<!-- /Users/mjr/exp/madatdata/packages/client&#45;http/tsconfig.json -->
<g id="node5" class="node">
<title>/Users/mjr/exp/madatdata/packages/client&#45;http/tsconfig.json</title>
<polygon fill="none" stroke="black" points="168.04,-180 20.35,-180 20.35,-144 168.04,-144 168.04,-180"/>
<text text-anchor="middle" x="94.2" y="-157.8" font-family="Helvetica,Arial,sans-serif" font-size="14.00">@madatdata/client&#45;http</text>
</g>
<!-- /Users/mjr/exp/madatdata/packages/core/tsconfig.json&#45;&gt;/Users/mjr/exp/madatdata/packages/client&#45;http/tsconfig.json -->
<g id="edge5" class="edge">
<title>/Users/mjr/exp/madatdata/packages/core/tsconfig.json&#45;&gt;/Users/mjr/exp/madatdata/packages/client&#45;http/tsconfig.json</title>
<path fill="none" stroke="black" d="M212.79,-215.88C191.33,-206.31 164.4,-194.3 141.63,-184.15"/>
<polygon fill="black" stroke="black" points="143.04,-180.94 132.48,-180.07 140.19,-187.34 143.04,-180.94"/>
</g>
<!-- /Users/mjr/exp/madatdata/packages/db&#45;splitgraph/tsconfig.json -->
<g id="node7" class="node">
<title>/Users/mjr/exp/madatdata/packages/db&#45;splitgraph/tsconfig.json</title>
<polygon fill="none" stroke="black" points="388.66,-180 223.73,-180 223.73,-144 388.66,-144 388.66,-180"/>
<text text-anchor="middle" x="306.2" y="-157.8" font-family="Helvetica,Arial,sans-serif" font-size="14.00">@madatdata/db&#45;splitgraph</text>
</g>
<!-- /Users/mjr/exp/madatdata/packages/core/tsconfig.json&#45;&gt;/Users/mjr/exp/madatdata/packages/db&#45;splitgraph/tsconfig.json -->
<g id="edge4" class="edge">
<title>/Users/mjr/exp/madatdata/packages/core/tsconfig.json&#45;&gt;/Users/mjr/exp/madatdata/packages/db&#45;splitgraph/tsconfig.json</title>
<path fill="none" stroke="black" d="M264.79,-215.7C271.32,-207.39 279.26,-197.28 286.44,-188.14"/>
<polygon fill="black" stroke="black" points="289.33,-190.13 292.76,-180.1 283.83,-185.81 289.33,-190.13"/>
</g>
<!-- /Users/mjr/exp/madatdata/packages/test&#45;helpers -->
<g id="node11" class="node">
<title>/Users/mjr/exp/madatdata/packages/test&#45;helpers</title>
<polygon fill="none" stroke="black" points="273.53,-108 118.86,-108 118.86,-72 273.53,-72 273.53,-108"/>
<text text-anchor="middle" x="196.2" y="-85.8" font-family="Helvetica,Arial,sans-serif" font-size="14.00">@madatdata/test&#45;helpers</text>
</g>
<!-- /Users/mjr/exp/madatdata/packages/core/tsconfig.json&#45;&gt;/Users/mjr/exp/madatdata/packages/test&#45;helpers -->
<g id="edge1" class="edge">
<title>/Users/mjr/exp/madatdata/packages/core/tsconfig.json&#45;&gt;/Users/mjr/exp/madatdata/packages/test&#45;helpers</title>
<path fill="none" stroke="black" d="M237.03,-215.85C229.51,-205.93 220.7,-192.89 215.2,-180 206.78,-160.29 201.95,-136.49 199.27,-118.46"/>
<polygon fill="black" stroke="black" points="202.71,-117.76 197.89,-108.33 195.77,-118.71 202.71,-117.76"/>
</g>
<!-- /Users/mjr/exp/madatdata/packages/ast&#45;parser/tsconfig.json -->
<g id="node2" class="node">
<title>/Users/mjr/exp/madatdata/packages/ast&#45;parser/tsconfig.json</title>
<polygon fill="none" stroke="black" points="430.42,-324 285.98,-324 285.98,-288 430.42,-288 430.42,-324"/>
<text text-anchor="middle" x="358.2" y="-301.8" font-family="Helvetica,Arial,sans-serif" font-size="14.00">@madatdata/ast&#45;parser</text>
</g>
<!-- /Users/mjr/exp/madatdata/packages/base&#45;db/tsconfig.json&#45;&gt;/Users/mjr/exp/madatdata/packages/base&#45;client/tsconfig.json -->
<g id="edge6" class="edge">
<title>/Users/mjr/exp/madatdata/packages/base&#45;db/tsconfig.json&#45;&gt;/Users/mjr/exp/madatdata/packages/base&#45;client/tsconfig.json</title>
<path fill="none" stroke="black" d="M396.2,-71.7C396.2,-63.98 396.2,-54.71 396.2,-46.11"/>
<polygon fill="black" stroke="black" points="399.7,-46.1 396.2,-36.1 392.7,-46.1 399.7,-46.1"/>
</g>
<!-- /Users/mjr/exp/madatdata/packages/client&#45;http/tsconfig.json&#45;&gt;/Users/mjr/exp/madatdata/packages/base&#45;client/tsconfig.json -->
<g id="edge8" class="edge">
<title>/Users/mjr/exp/madatdata/packages/client&#45;http/tsconfig.json&#45;&gt;/Users/mjr/exp/madatdata/packages/base&#45;client/tsconfig.json</title>
<path fill="none" stroke="black" d="M92,-143.67C90.51,-123.57 91.49,-90.81 110.2,-72 137.75,-44.3 236.47,-30.72 310.26,-24.32"/>
<polygon fill="black" stroke="black" points="310.83,-27.78 320.5,-23.46 310.24,-20.81 310.83,-27.78"/>
</g>
<!-- /Users/mjr/exp/madatdata/packages/client&#45;http/tsconfig.json&#45;&gt;/Users/mjr/exp/madatdata/packages/test&#45;helpers -->
<g id="edge7" class="edge">
<title>/Users/mjr/exp/madatdata/packages/client&#45;http/tsconfig.json&#45;&gt;/Users/mjr/exp/madatdata/packages/test&#45;helpers</title>
<path fill="none" stroke="black" d="M119.15,-143.88C132.24,-134.89 148.46,-123.76 162.63,-114.03"/>
<polygon fill="black" stroke="black" points="164.88,-116.73 171.15,-108.19 160.92,-110.96 164.88,-116.73"/>
</g>
<!-- /Users/mjr/exp/madatdata/packages/client&#45;postgres/tsconfig.json -->
<g id="node6" class="node">
<title>/Users/mjr/exp/madatdata/packages/client&#45;postgres/tsconfig.json</title>
<polygon fill="none" stroke="black" points="653.42,-108 480.97,-108 480.97,-72 653.42,-72 653.42,-108"/>
<text text-anchor="middle" x="567.2" y="-85.8" font-family="Helvetica,Arial,sans-serif" font-size="14.00">@madatdata/client&#45;postgres</text>
</g>
<!-- /Users/mjr/exp/madatdata/packages/client&#45;postgres/tsconfig.json&#45;&gt;/Users/mjr/exp/madatdata/packages/base&#45;client/tsconfig.json -->
<g id="edge9" class="edge">
<title>/Users/mjr/exp/madatdata/packages/client&#45;postgres/tsconfig.json&#45;&gt;/Users/mjr/exp/madatdata/packages/base&#45;client/tsconfig.json</title>
<path fill="none" stroke="black" d="M525.37,-71.88C501.78,-62.22 472.14,-50.09 447.2,-39.88"/>
<polygon fill="black" stroke="black" points="448.47,-36.62 437.89,-36.07 445.82,-43.1 448.47,-36.62"/>
</g>
<!-- /Users/mjr/exp/madatdata/packages/db&#45;splitgraph/tsconfig.json&#45;&gt;/Users/mjr/exp/madatdata/packages/base&#45;client/tsconfig.json -->
<g id="edge12" class="edge">
<title>/Users/mjr/exp/madatdata/packages/db&#45;splitgraph/tsconfig.json&#45;&gt;/Users/mjr/exp/madatdata/packages/base&#45;client/tsconfig.json</title>
<path fill="none" stroke="black" d="M305.07,-143.9C304.63,-124.9 306.43,-94.01 320.2,-72 327.82,-59.82 339.37,-49.69 351.19,-41.65"/>
<polygon fill="black" stroke="black" points="353.23,-44.5 359.78,-36.18 349.47,-38.6 353.23,-44.5"/>
</g>
<!-- /Users/mjr/exp/madatdata/packages/db&#45;splitgraph/tsconfig.json&#45;&gt;/Users/mjr/exp/madatdata/packages/base&#45;db/tsconfig.json -->
<g id="edge11" class="edge">
<title>/Users/mjr/exp/madatdata/packages/db&#45;splitgraph/tsconfig.json&#45;&gt;/Users/mjr/exp/madatdata/packages/base&#45;db/tsconfig.json</title>
<path fill="none" stroke="black" d="M328.44,-143.7C339.78,-134.88 353.73,-124.03 366.02,-114.47"/>
<polygon fill="black" stroke="black" points="368.46,-117.01 374.21,-108.1 364.16,-111.48 368.46,-117.01"/>
</g>
<!-- /Users/mjr/exp/madatdata/packages/db&#45;splitgraph/tsconfig.json&#45;&gt;/Users/mjr/exp/madatdata/packages/test&#45;helpers -->
<g id="edge10" class="edge">
<title>/Users/mjr/exp/madatdata/packages/db&#45;splitgraph/tsconfig.json&#45;&gt;/Users/mjr/exp/madatdata/packages/test&#45;helpers</title>
<path fill="none" stroke="black" d="M279.29,-143.88C265.04,-134.81 247.35,-123.55 231.96,-113.76"/>
<polygon fill="black" stroke="black" points="233.52,-110.61 223.21,-108.19 229.77,-116.51 233.52,-110.61"/>
</g>
<!-- /Users/mjr/exp/madatdata/packages/react/tsconfig.json -->
<g id="node8" class="node">
<title>/Users/mjr/exp/madatdata/packages/react/tsconfig.json</title>
<polygon fill="none" stroke="black" points="259.7,-324 142.7,-324 142.7,-288 259.7,-288 259.7,-324"/>
<text text-anchor="middle" x="201.2" y="-301.8" font-family="Helvetica,Arial,sans-serif" font-size="14.00">@madatdata/react</text>
</g>
<!-- /Users/mjr/exp/madatdata/packages/react/tsconfig.json&#45;&gt;/Users/mjr/exp/madatdata/packages/core/tsconfig.json -->
<g id="edge14" class="edge">
<title>/Users/mjr/exp/madatdata/packages/react/tsconfig.json&#45;&gt;/Users/mjr/exp/madatdata/packages/core/tsconfig.json</title>
<path fill="none" stroke="black" d="M213.56,-287.7C219.43,-279.47 226.57,-269.48 233.04,-260.42"/>
<polygon fill="black" stroke="black" points="236.01,-262.28 238.98,-252.1 230.32,-258.21 236.01,-262.28"/>
</g>
<!-- /Users/mjr/exp/madatdata/packages/react/tsconfig.json&#45;&gt;/Users/mjr/exp/madatdata/packages/test&#45;helpers -->
<g id="edge13" class="edge">
<title>/Users/mjr/exp/madatdata/packages/react/tsconfig.json&#45;&gt;/Users/mjr/exp/madatdata/packages/test&#45;helpers</title>
<path fill="none" stroke="black" d="M150.29,-287.95C79.21,-261.4 -36.04,-206.67 11.2,-144 23.6,-127.54 67.01,-114.64 108.66,-105.69"/>
<polygon fill="black" stroke="black" points="109.55,-109.08 118.63,-103.61 108.12,-102.22 109.55,-109.08"/>
</g>
<!-- /Users/mjr/exp/madatdata/packages/tiny&#45;react&#45;sandbox/tsconfig.json -->
<g id="node9" class="node">
<title>/Users/mjr/exp/madatdata/packages/tiny&#45;react&#45;sandbox/tsconfig.json</title>
<polygon fill="none" stroke="black" points="647.96,-324 452.43,-324 452.43,-288 647.96,-288 647.96,-324"/>
<text text-anchor="middle" x="550.2" y="-301.8" font-family="Helvetica,Arial,sans-serif" font-size="14.00">@madatdata/tiny&#45;react&#45;sandbox</text>
</g>
<!-- /Users/mjr/exp/madatdata/packages/client&#45;http -->
<g id="node12" class="node">
<title>/Users/mjr/exp/madatdata/packages/client&#45;http</title>
<polygon fill="none" stroke="black" points="574.04,-252 426.35,-252 426.35,-216 574.04,-216 574.04,-252"/>
<text text-anchor="middle" x="500.2" y="-229.8" font-family="Helvetica,Arial,sans-serif" font-size="14.00">@madatdata/client&#45;http</text>
</g>
<!-- /Users/mjr/exp/madatdata/packages/tiny&#45;react&#45;sandbox/tsconfig.json&#45;&gt;/Users/mjr/exp/madatdata/packages/client&#45;http -->
<g id="edge15" class="edge">
<title>/Users/mjr/exp/madatdata/packages/tiny&#45;react&#45;sandbox/tsconfig.json&#45;&gt;/Users/mjr/exp/madatdata/packages/client&#45;http</title>
<path fill="none" stroke="black" d="M537.84,-287.7C531.96,-279.47 524.83,-269.48 518.35,-260.42"/>
<polygon fill="black" stroke="black" points="521.07,-258.21 512.41,-252.1 515.38,-262.28 521.07,-258.21"/>
</g>
<!-- /Users/mjr/exp/madatdata/packages/react -->
<g id="node13" class="node">
<title>/Users/mjr/exp/madatdata/packages/react</title>
<polygon fill="none" stroke="black" points="709.7,-252 592.7,-252 592.7,-216 709.7,-216 709.7,-252"/>
<text text-anchor="middle" x="651.2" y="-229.8" font-family="Helvetica,Arial,sans-serif" font-size="14.00">@madatdata/react</text>
</g>
<!-- /Users/mjr/exp/madatdata/packages/tiny&#45;react&#45;sandbox/tsconfig.json&#45;&gt;/Users/mjr/exp/madatdata/packages/react -->
<g id="edge16" class="edge">
<title>/Users/mjr/exp/madatdata/packages/tiny&#45;react&#45;sandbox/tsconfig.json&#45;&gt;/Users/mjr/exp/madatdata/packages/react</title>
<path fill="none" stroke="black" d="M574.9,-287.88C587.87,-278.89 603.92,-267.76 617.96,-258.03"/>
<polygon fill="black" stroke="black" points="620.17,-260.76 626.39,-252.19 616.18,-255.01 620.17,-260.76"/>
</g>
<!-- /Users/mjr/exp/madatdata/packages/yeet/tsconfig.json -->
<g id="node10" class="node">
<title>/Users/mjr/exp/madatdata/packages/yeet/tsconfig.json</title>
<polygon fill="none" stroke="black" points="778.82,-324 665.57,-324 665.57,-288 778.82,-288 778.82,-324"/>
<text text-anchor="middle" x="722.2" y="-301.8" font-family="Helvetica,Arial,sans-serif" font-size="14.00">@madatdata/yeet</text>
</g>
</g>
</svg>

